<?xml version="1.0" encoding="utf-8"?>
<!-- Generator: Adobe Illustrator 24.0.1, SVG Export Plug-In . SVG Version: 6.00 Build 0)  -->
<svg version="1.1" id="Camada_1" xmlns="http://www.w3.org/2000/svg" xmlns:xlink="http://www.w3.org/1999/xlink" x="0px" y="0px"
	 viewBox="0 0 1366 768" style="enable-background:new 0 0 1366 768;" xml:space="preserve">
<style type="text/css">
	.st0{fill:url(#SVGID_1_);}
	.st1{fill:url(#SVGID_2_);}
	.st2{fill:url(#SVGID_3_);}
	.st3{fill:#FFFFFF;stroke:#000000;stroke-miterlimit:10;}
</style>
<linearGradient id="SVGID_1_" gradientUnits="userSpaceOnUse" x1="1053.0002" y1="152.2528" x2="40.8717" y2="701.7938">
	<stop  offset="9.057242e-07" style="stop-color:#2AA9FF"/>
	<stop  offset="1" style="stop-color:#3FFFEC"/>
</linearGradient>
<path class="st0" d="M303.5,716.3c17.6,5.4,35.3,12.1,54,11.4c15.3-0.6,29.4-6.3,43.7-10.8c56.2-18,119.7-20,177.4-5.6
	c16.8,4.2,33.5,9.8,51.1,10c17.9,0.2,35-5.2,52.3-9.1c62.6-14.4,131.3-10,190.3,12.3c9.8,3.7,19.7,7.9,30.5,8.4
	c13.1,0.5,25.4-4.6,37.4-8.9c73.6-26.6,161-26.3,234.3,0.9c11.4,4.2,23,9.1,35.4,8.9c10.5-0.2,20.3-4.2,29.9-7.6
	c38.6-13.8,78.6-19.9,117.8-19.3c2.7,0,5.3,0.1,8,0.2V259.5c0,0-77-111-369-114s-313-146-313-146H0.5V764
	C79.8,706.7,194.3,683,303.5,716.3z"/>
<linearGradient id="SVGID_2_" gradientUnits="userSpaceOnUse" x1="68.3252" y1="455.3032" x2="-31.3391" y2="509.4165">
	<stop  offset="1.129491e-06" style="stop-color:#91A9FF"/>
	<stop  offset="1" style="stop-color:#3FFFEC;stop-opacity:0"/>
</linearGradient>
<path class="st1" d="M0.5,389.5c53,0,96,43,96,96s-43,96-96,96"/>
<linearGradient id="SVGID_3_" gradientUnits="userSpaceOnUse" x1="702.6367" y1="70.046" x2="467.9671" y2="197.3888" gradientTransform="matrix(-0.4846 0.8747 -0.8747 -0.4846 1704.95 -193.5659)">
	<stop  offset="1.129491e-06" style="stop-color:#91A9FF"/>
	<stop  offset="1" style="stop-color:#3FFFEC;stop-opacity:0"/>
</linearGradient>
<path class="st2" d="M1365.2,439.5c-23.6,0-45.3-12.6-57.1-33l-56.8-98.4c-12.7-22-12.7-49.1,0-71.1l56.8-98.4
	c11.8-20.4,33.6-33,57.1-33"/>
<path class="st3" d="M1031.5-112.5"/>
</svg>
